inDegrees=yes
name=ik_lifting_orientations
DataType=double
version=3
OpenSimVersion=4.5-2024-01-10-34fd6af
endheader
time	pelvis_tilt	pelvis_list	pelvis_rotation	pelvis_tx	pelvis_ty	pelvis_tz	hip_flexion_r	hip_adduction_r	hip_rotation_r	knee_angle_r	knee_angle_r_beta	ankle_angle_r	subtalar_angle_r	mtp_angle_r	hip_flexion_l	hip_adduction_l	hip_rotation_l	knee_angle_l	knee_angle_l_beta	ankle_angle_l	subtalar_angle_l	mtp_angle_l	lumbar_extension	lumbar_bending	lumbar_rotation	arm_flex_r	arm_add_r	arm_rot_r	elbow_flex_r	pro_sup_r	wrist_flex_r	wrist_dev_r	arm_flex_l	arm_add_l	arm_rot_l	elbow_flex_l	pro_sup_l	wrist_flex_l	wrist_dev_l
0.74	-10.69671798907795	-11.37337251017349	-28.05037326261835	0	0.9399999998679526	0	45.31030592812485	-10.54903483967039	0	60.0271100655189	1.047670711100334	-5.237586367183154	0	0	45.31030592812485	-10.54903483967039	0	60.0271100655189	1.047670711100334	-5.237586367183154	0	0	29.67232059831969	-40.60397683392386	-46.52707562182794	-61.46737857177841	8.162020215337105	19.06693396571023	17.92916265387068	1.770808219752409	0	0	0	-11.73590640312971	0	88.27229131439378	1.770808219752409	0	0
0.75	-10.66473223670579	-11.4480757197392	-28.3012259277421	0	0.9399999998679526	0	45.31020190797611	-10.54839318972669	0	60.02710295939944	1.047670587075152	-5.237224435511166	0	0	45.31020190797611	-10.54839318972669	0	60.02710295939944	1.047670587075152	-5.237224435511166	0	0	29.68922596908637	-40.18398842051944	-46.4949591269872	-61.47113524368334	7.734472000834364	19.46314579608816	18.52484978493426	1.770394816742455	0	0	0	-11.73646767689851	0	88.27269460824938	1.770394816742455	0	0
0.76	-10.58866002530662	-11.58779132999628	-28.72419877196985	0	0.9399999998679526	0	45.31002740332073	-10.5473535482614	0	60.0270907665404	1.047670374269617	-5.236642830785034	0	0	45.31002740332073	-10.5473535482614	0	60.0270907665404	1.047670374269617	-5.236642830785034	0	0	29.7090033375576	-39.77480285828217	-46.32406039584784	-61.56346329279621	7.264091763934518	19.81000000712973	19.15801495244729	1.769694946086093	0	0	0	-11.73742492120645	0	88.27337736517333	1.769694946086093	0	0
0.77	-10.53150766242895	-11.71076378103868	-29.15896364467951	0	0.9399999998679526	0	45.30990344404961	-10.54659335661817	0	60.0270822690729	1.047670225960831	-5.236214686918532	0	0	45.30990344404961	-10.54659335661817	0	60.0270822690729	1.047670225960831	-5.236214686918532	0	0	29.80745218988416	-39.31457979092867	-45.99753397647731	-61.73260960704778	6.852011833688927	20.14459951714304	19.77395947755718	1.769201556111479	0	0	0	-11.73809562483463	0	88.27385869010283	1.769201556111479	0	0
0.78	-10.54605681448433	-11.70963072202952	-29.26390325228905	0	0.9399999998679526	0	45.30981642769171	-10.54605624309856	0	60.0270763384011	1.047670122451081	-5.235911858936459	0	0	45.30981642769171	-10.54605624309856	0	60.0270763384011	1.047670122451081	-5.235911858936459	0	0	29.75203027497024	-39.12421237851211	-46.09814447347971	-61.97096786333758	6.41208541534741	20.67784440103381	20.18724954088536	1.768855954055442	0	0	0	-11.73856455749344	0	88.27419584095968	1.768855954055442	0	0
0.79	-10.44326230619254	-11.78152915983897	-29.18321655400849	0	0.9399999998679526	0	45.30965374740472	-10.54505187572956	0	60.02706526124202	1.047669929118183	-5.235345709227929	0	0	45.30965374740472	-10.54505187572956	0	60.02706526124202	1.047669929118183	-5.235345709227929	0	0	29.40025017313091	-39.14764954067313	-46.41361801531261	-62.28527652881563	6.011771870766868	21.57175015219488	20.78133340373845	1.768210011702714	0	0	0	-11.73944078017382	0	88.27482598771149	1.768210011702714	0	0
0.8	-10.526226044494	-11.80337527739125	-29.33461649688771	0	0.9399999998679526	0	45.30952088016958	-10.54423305203311	0	60.02705620892397	1.047669771125428	-5.234884440849564	0	0	45.30952088016958	-10.54423305203311	0	60.02705620892397	1.047669771125428	-5.234884440849564	0	0	29.52802060075433	-39.09726617155779	-46.57940761418995	-62.85329788732684	5.431374467885825	22.57317422086454	21.36729691400832	1.76768227367831	0	0	0	-11.74015682983219	0	88.27534082067088	1.76768227367831	0	0
0.8100000000000001	-10.61427839914125	-11.83191777494015	-29.47770394755957	0	0.9399999998679526	0	45.30943397198839	-10.54369910322616	0	60.02705027763039	1.047669667604827	-5.234583900943988	0	0	45.30943397198839	-10.54369910322616	0	60.02705027763039	1.047669667604827	-5.234583900943988	0	0	29.67840366808582	-39.03049649067891	-46.7236321259052	-63.40589502008234	4.841094597173718	23.6900050833173	22.2249632676799	1.767336823586245	0	0	0	-11.74062582745777	0	88.2756778233077	1.767336823586245	0	0
0.82	-10.7786530573128	-11.71081123796378	-29.45361478357204	0	0.9399999998679526	0	45.30934260077214	-10.54313836175535	0	60.02704404247552	1.047669558780845	-5.234268448006121	0	0	45.30934260077214	-10.54313836175535	0	60.02704404247552	1.047669558780845	-5.234268448006121	0	0	30.08496269692007	-39.34656346359733	-47.04863876116465	-63.03208129343251	4.875684566022048	25.02000243585455	21.52288450448033	1.766973614167377	0	0	0	-11.74111893020867	0	88.27603215099585	1.766973614167377	0	0
0.83	-11.09868791943909	-11.38401505722839	-28.66531690841965	0	0.9399999998679526	0	45.30918288260306	-10.54215747357516	0	60.02703315140413	1.04766936869579	-5.233716598189121	0	0	45.30918288260306	-10.54215747357516	0	60.02703315140413	1.04766936869579	-5.233716598189121	0	0	30.16259223150638	-40.33274795624765	-48.01597410430792	-63.06563534777258	4.950056378532767	26.16161889733074	21.17376810694366	1.766338866599364	0	0	0	-11.74198051838146	0	88.27665137677351	1.766338866599364	0	0
